<svg width="64" height="45" viewBox="0 0 64 45" fill="none" xmlns="http://www.w3.org/2000/svg">
<path fill-rule="evenodd" clip-rule="evenodd" d="M62 3H2V18.1918C4.39974 18.6101 6.218 20.6037 6.218 23C6.218 25.3962 4.39974 27.3898 2 27.8081V43H62V27.8889C61.9999 27.8889 61.9998 27.8889 61.9997 27.8889C59.152 27.8889 56.8435 25.7 56.8435 23C56.8435 20.2999 59.152 18.1111 61.9997 18.1111C61.9998 18.1111 61.9999 18.1111 62 18.1111V3Z" fill="#F6F7F9"/>
<path d="M2 3V2.25C1.58579 2.25 1.25 2.58579 1.25 3H2ZM62 3H62.75C62.75 2.58579 62.4142 2.25 62 2.25V3ZM2 18.1918H1.25C1.25 18.5564 1.5121 18.8681 1.87121 18.9307L2 18.1918ZM2 27.8081L1.87121 27.0693C1.5121 27.1319 1.25 27.4436 1.25 27.8081H2ZM2 43H1.25C1.25 43.4142 1.58579 43.75 2 43.75V43ZM62 43V43.75C62.4142 43.75 62.75 43.4142 62.75 43H62ZM62 27.8889H62.75C62.75 27.4746 62.4142 27.1389 62 27.1389V27.8889ZM62 18.1111V18.8611C62.4142 18.8611 62.75 18.5253 62.75 18.1111H62ZM2 3.75H62V2.25H2V3.75ZM2.75 18.1918V3H1.25V18.1918H2.75ZM6.968 23C6.968 20.2048 4.85269 17.9278 2.12879 17.453L1.87121 18.9307C3.94679 19.2925 5.468 21.0026 5.468 23H6.968ZM2.12879 28.547C4.85269 28.0722 6.968 25.7951 6.968 23H5.468C5.468 24.9973 3.94679 26.7075 1.87121 27.0693L2.12879 28.547ZM2.75 43V27.8081H1.25V43H2.75ZM62 42.25H2V43.75H62V42.25ZM61.25 27.8889V43H62.75V27.8889H61.25ZM61.9997 28.6389C61.9997 28.6389 61.9997 28.6389 61.9997 28.6389C61.9997 28.6389 61.9997 28.6389 61.9997 28.6389H61.9998C61.9998 28.6389 61.9998 28.6389 61.9998 28.6389H61.9998C61.9998 28.6389 61.9998 28.6389 61.9998 28.6389H61.9998C61.9998 28.6389 61.9998 28.6389 61.9998 28.6389H61.9998C61.9998 28.6389 61.9998 28.6389 61.9998 28.6389H61.9998C61.9998 28.6389 61.9998 28.6389 61.9998 28.6389H61.9998C61.9998 28.6389 61.9998 28.6389 61.9998 28.6389H61.9998C61.9998 28.6389 61.9998 28.6389 61.9998 28.6389H61.9998C61.9998 28.6389 61.9998 28.6389 61.9998 28.6389H61.9998C61.9998 28.6389 61.9998 28.6389 61.9998 28.6389C61.9998 28.6389 61.9998 28.6389 61.9998 28.6389C61.9998 28.6389 61.9998 28.6389 61.9998 28.6389C61.9998 28.6389 61.9998 28.6389 61.9998 28.6389H61.9998C61.9998 28.6389 61.9998 28.6389 61.9998 28.6389H61.9998C61.9998 28.6389 61.9998 28.6389 61.9998 28.6389C61.9998 28.6389 61.9998 28.6389 61.9998 28.6389C61.9999 28.6389 61.9999 28.6389 61.9999 28.6389C61.9999 28.6389 61.9999 28.6389 61.9999 28.6389H61.9999C61.9999 28.6389 61.9999 28.6389 61.9999 28.6389H61.9999C61.9999 28.6389 61.9999 28.6389 61.9999 28.6389C61.9999 28.6389 61.9999 28.6389 61.9999 28.6389H61.9999C61.9999 28.6389 61.9999 28.6389 61.9999 28.6389H61.9999C61.9999 28.6389 61.9999 28.6389 61.9999 28.6389C61.9999 28.6389 61.9999 28.6389 61.9999 28.6389C61.9999 28.6389 61.9999 28.6389 61.9999 28.6389C61.9999 28.6389 61.9999 28.6389 61.9999 28.6389H61.9999C61.9999 28.6389 61.9999 28.6389 61.9999 28.6389H61.9999C61.9999 28.6389 61.9999 28.6389 61.9999 28.6389C61.9999 28.6389 61.9999 28.6389 61.9999 28.6389C61.9999 28.6389 61.9999 28.6389 61.9999 28.6389C61.9999 28.6389 61.9999 28.6389 61.9999 28.6389H61.9999C61.9999 28.6389 61.9999 28.6389 61.9999 28.6389H61.9999C61.9999 28.6389 61.9999 28.6389 61.9999 28.6389H61.9999C62 28.6389 62 28.6389 62 28.6389H62C62 28.6389 62 28.6389 62 28.6389H62C62 28.6389 62 28.6389 62 28.6389H62C62 28.6389 62 28.6389 62 28.6389H62C62 28.6389 62 28.6389 62 28.6389H62C62 28.6389 62 28.6389 62 28.6389H62C62 28.6389 62 28.6389 62 28.6389C62 28.6389 62 28.6389 62 28.6389V27.1389C62 27.1389 62 27.1389 62 27.1389C62 27.1389 62 27.1389 62 27.1389H62C62 27.1389 62 27.1389 62 27.1389H62C62 27.1389 62 27.1389 62 27.1389H62C62 27.1389 62 27.1389 62 27.1389H62C62 27.1389 62 27.1389 62 27.1389H62C62 27.1389 62 27.1389 62 27.1389H62C62 27.1389 62 27.1389 61.9999 27.1389H61.9999C61.9999 27.1389 61.9999 27.1389 61.9999 27.1389H61.9999C61.9999 27.1389 61.9999 27.1389 61.9999 27.1389H61.9999C61.9999 27.1389 61.9999 27.1389 61.9999 27.1389C61.9999 27.1389 61.9999 27.1389 61.9999 27.1389C61.9999 27.1389 61.9999 27.1389 61.9999 27.1389C61.9999 27.1389 61.9999 27.1389 61.9999 27.1389H61.9999C61.9999 27.1389 61.9999 27.1389 61.9999 27.1389H61.9999C61.9999 27.1389 61.9999 27.1389 61.9999 27.1389C61.9999 27.1389 61.9999 27.1389 61.9999 27.1389C61.9999 27.1389 61.9999 27.1389 61.9999 27.1389C61.9999 27.1389 61.9999 27.1389 61.9999 27.1389H61.9999C61.9999 27.1389 61.9999 27.1389 61.9999 27.1389H61.9999C61.9999 27.1389 61.9999 27.1389 61.9999 27.1389C61.9999 27.1389 61.9999 27.1389 61.9999 27.1389H61.9999C61.9999 27.1389 61.9999 27.1389 61.9999 27.1389H61.9999C61.9999 27.1389 61.9999 27.1389 61.9999 27.1389C61.9999 27.1389 61.9999 27.1389 61.9998 27.1389C61.9998 27.1389 61.9998 27.1389 61.9998 27.1389C61.9998 27.1389 61.9998 27.1389 61.9998 27.1389H61.9998C61.9998 27.1389 61.9998 27.1389 61.9998 27.1389H61.9998C61.9998 27.1389 61.9998 27.1389 61.9998 27.1389C61.9998 27.1389 61.9998 27.1389 61.9998 27.1389C61.9998 27.1389 61.9998 27.1389 61.9998 27.1389C61.9998 27.1389 61.9998 27.1389 61.9998 27.1389H61.9998C61.9998 27.1389 61.9998 27.1389 61.9998 27.1389H61.9998C61.9998 27.1389 61.9998 27.1389 61.9998 27.1389H61.9998C61.9998 27.1389 61.9998 27.1389 61.9998 27.1389H61.9998C61.9998 27.1389 61.9998 27.1389 61.9998 27.1389H61.9998C61.9998 27.1389 61.9998 27.1389 61.9998 27.1389H61.9998C61.9998 27.1389 61.9998 27.1389 61.9998 27.1389H61.9998C61.9998 27.1389 61.9998 27.1389 61.9998 27.1389H61.9998C61.9998 27.1389 61.9998 27.1389 61.9998 27.1389H61.9997C61.9997 27.1389 61.9997 27.1389 61.9997 27.1389C61.9997 27.1389 61.9997 27.1389 61.9997 27.1389V28.6389ZM56.0935 23C56.0935 26.1514 58.7759 28.6389 61.9997 28.6389V27.1389C59.5281 27.1389 57.5935 25.2487 57.5935 23H56.0935ZM61.9997 17.3611C58.7759 17.3611 56.0935 19.8486 56.0935 23H57.5935C57.5935 20.7513 59.5281 18.8611 61.9997 18.8611V17.3611ZM62 17.3611C62 17.3611 62 17.3611 62 17.3611C62 17.3611 62 17.3611 62 17.3611H62C62 17.3611 62 17.3611 62 17.3611H62C62 17.3611 62 17.3611 62 17.3611H62C62 17.3611 62 17.3611 62 17.3611H62C62 17.3611 62 17.3611 62 17.3611H62C62 17.3611 62 17.3611 62 17.3611H62C62 17.3611 62 17.3611 61.9999 17.3611H61.9999C61.9999 17.3611 61.9999 17.3611 61.9999 17.3611H61.9999C61.9999 17.3611 61.9999 17.3611 61.9999 17.3611H61.9999C61.9999 17.3611 61.9999 17.3611 61.9999 17.3611C61.9999 17.3611 61.9999 17.3611 61.9999 17.3611C61.9999 17.3611 61.9999 17.3611 61.9999 17.3611C61.9999 17.3611 61.9999 17.3611 61.9999 17.3611H61.9999C61.9999 17.3611 61.9999 17.3611 61.9999 17.3611H61.9999C61.9999 17.3611 61.9999 17.3611 61.9999 17.3611C61.9999 17.3611 61.9999 17.3611 61.9999 17.3611C61.9999 17.3611 61.9999 17.3611 61.9999 17.3611C61.9999 17.3611 61.9999 17.3611 61.9999 17.3611H61.9999C61.9999 17.3611 61.9999 17.3611 61.9999 17.3611H61.9999C61.9999 17.3611 61.9999 17.3611 61.9999 17.3611C61.9999 17.3611 61.9999 17.3611 61.9999 17.3611H61.9999C61.9999 17.3611 61.9999 17.3611 61.9999 17.3611H61.9999C61.9999 17.3611 61.9999 17.3611 61.9999 17.3611C61.9999 17.3611 61.9999 17.3611 61.9998 17.3611C61.9998 17.3611 61.9998 17.3611 61.9998 17.3611C61.9998 17.3611 61.9998 17.3611 61.9998 17.3611H61.9998C61.9998 17.3611 61.9998 17.3611 61.9998 17.3611H61.9998C61.9998 17.3611 61.9998 17.3611 61.9998 17.3611C61.9998 17.3611 61.9998 17.3611 61.9998 17.3611C61.9998 17.3611 61.9998 17.3611 61.9998 17.3611C61.9998 17.3611 61.9998 17.3611 61.9998 17.3611H61.9998C61.9998 17.3611 61.9998 17.3611 61.9998 17.3611H61.9998C61.9998 17.3611 61.9998 17.3611 61.9998 17.3611H61.9998C61.9998 17.3611 61.9998 17.3611 61.9998 17.3611H61.9998C61.9998 17.3611 61.9998 17.3611 61.9998 17.3611H61.9998C61.9998 17.3611 61.9998 17.3611 61.9998 17.3611H61.9998C61.9998 17.3611 61.9998 17.3611 61.9998 17.3611H61.9998C61.9998 17.3611 61.9998 17.3611 61.9998 17.3611H61.9998C61.9998 17.3611 61.9998 17.3611 61.9998 17.3611H61.9997C61.9997 17.3611 61.9997 17.3611 61.9997 17.3611C61.9997 17.3611 61.9997 17.3611 61.9997 17.3611V18.8611C61.9997 18.8611 61.9997 18.8611 61.9997 18.8611C61.9997 18.8611 61.9997 18.8611 61.9997 18.8611H61.9998C61.9998 18.8611 61.9998 18.8611 61.9998 18.8611H61.9998C61.9998 18.8611 61.9998 18.8611 61.9998 18.8611H61.9998C61.9998 18.8611 61.9998 18.8611 61.9998 18.8611H61.9998C61.9998 18.8611 61.9998 18.8611 61.9998 18.8611H61.9998C61.9998 18.8611 61.9998 18.8611 61.9998 18.8611H61.9998C61.9998 18.8611 61.9998 18.8611 61.9998 18.8611H61.9998C61.9998 18.8611 61.9998 18.8611 61.9998 18.8611H61.9998C61.9998 18.8611 61.9998 18.8611 61.9998 18.8611H61.9998C61.9998 18.8611 61.9998 18.8611 61.9998 18.8611C61.9998 18.8611 61.9998 18.8611 61.9998 18.8611C61.9998 18.8611 61.9998 18.8611 61.9998 18.8611C61.9998 18.8611 61.9998 18.8611 61.9998 18.8611H61.9998C61.9998 18.8611 61.9998 18.8611 61.9998 18.8611H61.9998C61.9998 18.8611 61.9998 18.8611 61.9998 18.8611C61.9998 18.8611 61.9998 18.8611 61.9998 18.8611C61.9999 18.8611 61.9999 18.8611 61.9999 18.8611C61.9999 18.8611 61.9999 18.8611 61.9999 18.8611H61.9999C61.9999 18.8611 61.9999 18.8611 61.9999 18.8611H61.9999C61.9999 18.8611 61.9999 18.8611 61.9999 18.8611C61.9999 18.8611 61.9999 18.8611 61.9999 18.8611H61.9999C61.9999 18.8611 61.9999 18.8611 61.9999 18.8611H61.9999C61.9999 18.8611 61.9999 18.8611 61.9999 18.8611C61.9999 18.8611 61.9999 18.8611 61.9999 18.8611C61.9999 18.8611 61.9999 18.8611 61.9999 18.8611C61.9999 18.8611 61.9999 18.8611 61.9999 18.8611H61.9999C61.9999 18.8611 61.9999 18.8611 61.9999 18.8611H61.9999C61.9999 18.8611 61.9999 18.8611 61.9999 18.8611C61.9999 18.8611 61.9999 18.8611 61.9999 18.8611C61.9999 18.8611 61.9999 18.8611 61.9999 18.8611C61.9999 18.8611 61.9999 18.8611 61.9999 18.8611H61.9999C61.9999 18.8611 61.9999 18.8611 61.9999 18.8611H61.9999C61.9999 18.8611 61.9999 18.8611 61.9999 18.8611H61.9999C62 18.8611 62 18.8611 62 18.8611H62C62 18.8611 62 18.8611 62 18.8611H62C62 18.8611 62 18.8611 62 18.8611H62C62 18.8611 62 18.8611 62 18.8611H62C62 18.8611 62 18.8611 62 18.8611H62C62 18.8611 62 18.8611 62 18.8611H62C62 18.8611 62 18.8611 62 18.8611C62 18.8611 62 18.8611 62 18.8611V17.3611ZM61.25 3V18.1111H62.75V3H61.25Z" fill="#131518"/>
<path d="M14.7251 27.1111C16.3316 27.1111 17.4719 26.1455 17.615 24.7298L17.6197 24.6782H16.2624L16.2532 24.7157C16.1054 25.4376 15.5283 25.9111 14.7297 25.9111C13.6771 25.9111 13.0261 25.0111 13.0261 23.5579V23.5485C13.0261 22.0954 13.6771 21.2 14.7251 21.2C15.5191 21.2 16.1147 21.7157 16.2578 22.4751V22.5079H17.615V22.4516C17.4858 21.0219 16.3039 20 14.7251 20C12.7907 20 11.5996 21.3547 11.5996 23.5485V23.5579C11.5996 25.7517 12.7953 27.1111 14.7251 27.1111Z" fill="#131518"/>
<path d="M21.438 27.1111C23.4046 27.1111 24.6419 25.7423 24.6419 23.5579V23.5485C24.6419 21.3641 23.4 20 21.438 20C19.4759 20 18.2294 21.3594 18.2294 23.5485V23.5579C18.2294 25.7423 19.4574 27.1111 21.438 27.1111ZM21.438 25.9111C20.3392 25.9111 19.6513 24.9876 19.6513 23.5579V23.5485C19.6513 22.1141 20.3531 21.2 21.438 21.2C22.5183 21.2 23.22 22.1141 23.22 23.5485V23.5579C23.22 24.9876 22.5229 25.9111 21.438 25.9111Z" fill="#131518"/>
<path d="M28.3771 27.1111C30.0945 27.1111 31.1655 26.1033 31.1655 24.6032V20.1734H29.7713V24.4767C29.7713 25.3533 29.2727 25.9111 28.3771 25.9111C27.4815 25.9111 26.9783 25.3533 26.9783 24.4767V20.1734H25.5841V24.6032C25.5841 26.108 26.669 27.1111 28.3771 27.1111Z" fill="#131518"/>
<path d="M32.4032 26.9377H33.7974V24.8048H35.15C36.5535 24.8048 37.4907 23.886 37.4907 22.4938V22.4844C37.4907 21.0922 36.5535 20.1734 35.15 20.1734H32.4032V26.9377ZM34.8084 21.2938C35.6071 21.2938 36.078 21.7204 36.078 22.4891V22.4985C36.078 23.2673 35.6071 23.6985 34.8084 23.6985H33.7974V21.2938H34.8084Z" fill="#131518"/>
<path d="M41.309 27.1111C43.2756 27.1111 44.5129 25.7423 44.5129 23.5579V23.5485C44.5129 21.3641 43.271 20 41.309 20C39.3469 20 38.1004 21.3594 38.1004 23.5485V23.5579C38.1004 25.7423 39.3284 27.1111 41.309 27.1111ZM41.309 25.9111C40.2102 25.9111 39.5223 24.9876 39.5223 23.5579V23.5485C39.5223 22.1141 40.2241 21.2 41.309 21.2C42.3892 21.2 43.091 22.1141 43.091 23.5485V23.5579C43.091 24.9876 42.3939 25.9111 41.309 25.9111Z" fill="#131518"/>
<path d="M45.4597 26.9377H46.7939V22.611H46.8677L49.9516 26.9377H51.1058V20.1734H49.7716V24.4814H49.6977L46.623 20.1734H45.4597V26.9377Z" fill="#131518"/>
</svg>
