<svg width="64" height="45" viewBox="0 0 64 45" fill="none" xmlns="http://www.w3.org/2000/svg">
<mask id="path-1-outside-1_836_10936" maskUnits="userSpaceOnUse" x="32.3115" y="2.51123" width="14" height="17" fill="black">
<rect fill="white" x="32.3115" y="2.51123" width="14" height="17"/>
<path fill-rule="evenodd" clip-rule="evenodd" d="M34.3115 10.9111C37.07 10.9095 39.3057 8.04479 39.3058 4.51123C39.3066 4.51123 39.3074 4.51123 39.3081 4.51123C39.309 4.51123 39.3098 4.51123 39.3107 4.51123C39.3107 8.04471 41.5464 10.9093 44.3047 10.9111C44.3047 10.9111 44.3047 10.9111 44.3047 10.9111C41.5463 10.9129 39.3107 13.7776 39.3107 17.3111C39.3107 17.3111 39.3107 17.3112 39.3107 17.3112C39.3098 17.3112 39.309 17.3112 39.3081 17.3112C39.3073 17.3112 39.3064 17.3112 39.3056 17.3112C39.3056 17.3112 39.3056 17.3111 39.3056 17.3111C39.3056 13.7776 37.0699 10.9129 34.3115 10.9111C34.3115 10.9111 34.3115 10.9111 34.3115 10.9111Z"/>
</mask>
<path fill-rule="evenodd" clip-rule="evenodd" d="M34.3115 10.9111C37.07 10.9095 39.3057 8.04479 39.3058 4.51123C39.3066 4.51123 39.3074 4.51123 39.3081 4.51123C39.309 4.51123 39.3098 4.51123 39.3107 4.51123C39.3107 8.04471 41.5464 10.9093 44.3047 10.9111C44.3047 10.9111 44.3047 10.9111 44.3047 10.9111C41.5463 10.9129 39.3107 13.7776 39.3107 17.3111C39.3107 17.3111 39.3107 17.3112 39.3107 17.3112C39.3098 17.3112 39.309 17.3112 39.3081 17.3112C39.3073 17.3112 39.3064 17.3112 39.3056 17.3112C39.3056 17.3112 39.3056 17.3111 39.3056 17.3111C39.3056 13.7776 37.0699 10.9129 34.3115 10.9111C34.3115 10.9111 34.3115 10.9111 34.3115 10.9111Z" fill="#F6F7F9"/>
<path d="M34.3115 10.9111L34.3107 9.41106C33.4826 9.41154 32.8115 10.083 32.8115 10.9111H34.3115ZM39.3058 4.51123L39.3049 3.01123C38.4769 3.01171 37.8058 3.68313 37.8058 4.5112L39.3058 4.51123ZM39.3107 4.51123L40.8107 4.51121C40.8106 3.68316 40.1397 3.01176 39.3116 3.01123L39.3107 4.51123ZM44.3047 10.9111H45.8047C45.8047 10.083 45.1337 9.41161 44.3057 9.41108L44.3047 10.9111ZM44.3047 10.9111L44.3057 12.4111C45.1337 12.4106 45.8047 11.7392 45.8047 10.9111H44.3047ZM39.3107 17.3112V18.8112C40.1391 18.8112 40.8107 18.1397 40.8107 17.3112H39.3107ZM39.3056 17.3112H37.8056C37.8056 18.1397 38.4772 18.8112 39.3056 18.8112V17.3112ZM34.3115 10.9111H32.8115C32.8115 11.7392 33.4825 12.4106 34.3106 12.4111L34.3115 10.9111ZM34.3124 12.4111C38.2231 12.4088 40.8057 8.50637 40.8058 4.51126L37.8058 4.5112C37.8057 7.58321 35.9169 9.41012 34.3107 9.41106L34.3124 12.4111ZM39.3067 6.01123C39.3078 6.01123 39.309 6.01123 39.309 6.01123C39.3094 6.01123 39.3089 6.01123 39.3081 6.01123V3.01123C39.3066 3.01123 39.3053 3.01123 39.3049 3.01123C39.3042 3.01123 39.3046 3.01123 39.3049 3.01123L39.3067 6.01123ZM39.3081 6.01123C39.3074 6.01123 39.307 6.01123 39.3073 6.01123C39.3074 6.01123 39.3086 6.01123 39.3097 6.01123L39.3116 3.01123C39.3119 3.01123 39.3122 3.01123 39.3114 3.01123C39.311 3.01123 39.3096 3.01123 39.3081 3.01123V6.01123ZM37.8107 4.51126C37.8107 8.50628 40.3932 12.4086 44.3038 12.4111L44.3057 9.41108C42.6995 9.41006 40.8107 7.58313 40.8107 4.51121L37.8107 4.51126ZM42.8047 10.9111V10.9111V10.9111C42.8047 10.9111 42.8047 10.9111 42.8047 10.9111C42.8047 10.9111 42.8047 10.9111 42.8047 10.9111V10.9111C42.8047 10.9111 42.8047 10.9111 42.8047 10.9111C42.8047 10.9111 42.8047 10.9111 42.8047 10.9111V10.9111V10.9111V10.9111V10.9111C42.8047 10.9111 42.8047 10.9111 42.8047 10.9111C42.8047 10.9111 42.8047 10.9111 42.8047 10.9111V10.9111C42.8047 10.9111 42.8047 10.9111 42.8047 10.9111V10.9111C42.8047 10.9111 42.8047 10.9111 42.8047 10.9111C42.8047 10.9111 42.8047 10.9111 42.8047 10.9111C42.8047 10.9111 42.8047 10.9111 42.8047 10.9111C42.8047 10.9111 42.8047 10.9111 42.8047 10.9111V10.9111V10.9111V10.9111V10.9111V10.9111V10.9111V10.9111V10.9111V10.9111V10.9111C42.8047 10.9111 42.8047 10.9111 42.8047 10.9111C42.8047 10.9111 42.8047 10.9111 42.8047 10.9111C42.8047 10.9111 42.8047 10.9111 42.8047 10.9111C42.8047 10.9111 42.8047 10.9111 42.8047 10.9111V10.9111C42.8047 10.9111 42.8047 10.9111 42.8047 10.9111V10.9111C42.8047 10.9111 42.8047 10.9111 42.8047 10.9111C42.8047 10.9111 42.8047 10.9111 42.8047 10.9111V10.9111V10.9111V10.9111V10.9111C42.8047 10.9111 42.8047 10.9111 42.8047 10.9111C42.8047 10.9111 42.8047 10.9111 42.8047 10.9111V10.9111C42.8047 10.9111 42.8047 10.9111 42.8047 10.9111C42.8047 10.9111 42.8047 10.9111 42.8047 10.9111V10.9111V10.9111H45.8047V10.9111V10.9111C45.8047 10.9111 45.8047 10.9111 45.8047 10.9111C45.8047 10.9111 45.8047 10.9111 45.8047 10.9111V10.9111C45.8047 10.9111 45.8047 10.9111 45.8047 10.9111C45.8047 10.9111 45.8047 10.9111 45.8047 10.9111V10.9111V10.9111V10.9111V10.9111C45.8047 10.9111 45.8047 10.9111 45.8047 10.9111C45.8047 10.9111 45.8047 10.9111 45.8047 10.9111V10.9111C45.8047 10.9111 45.8047 10.9111 45.8047 10.9111V10.9111C45.8047 10.9111 45.8047 10.9111 45.8047 10.9111C45.8047 10.9111 45.8047 10.9111 45.8047 10.9111C45.8047 10.9111 45.8047 10.9111 45.8047 10.9111C45.8047 10.9111 45.8047 10.9111 45.8047 10.9111V10.9111V10.9111V10.9111V10.9111V10.9111V10.9111V10.9111V10.9111V10.9111V10.9111C45.8047 10.9111 45.8047 10.9111 45.8047 10.9111C45.8047 10.9111 45.8047 10.9111 45.8047 10.9111C45.8047 10.9111 45.8047 10.9111 45.8047 10.9111C45.8047 10.9111 45.8047 10.9111 45.8047 10.9111V10.9111C45.8047 10.9111 45.8047 10.9111 45.8047 10.9111V10.9111C45.8047 10.9111 45.8047 10.9111 45.8047 10.9111C45.8047 10.9111 45.8047 10.9111 45.8047 10.9111V10.9111V10.9111V10.9111V10.9111C45.8047 10.9111 45.8047 10.9111 45.8047 10.9111C45.8047 10.9111 45.8047 10.9111 45.8047 10.9111V10.9111C45.8047 10.9111 45.8047 10.9111 45.8047 10.9111C45.8047 10.9111 45.8047 10.9111 45.8047 10.9111V10.9111V10.9111H42.8047ZM40.8107 17.3111C40.8107 14.2391 42.6995 12.4121 44.3057 12.4111L44.3038 9.41111C40.3932 9.41359 37.8107 13.316 37.8107 17.3111H40.8107ZM40.8107 17.3112C40.8107 17.3112 40.8107 17.3112 40.8107 17.3112C40.8107 17.3112 40.8107 17.3112 40.8107 17.3112C40.8107 17.3112 40.8107 17.3112 40.8107 17.3112C40.8107 17.3112 40.8107 17.3112 40.8107 17.3112C40.8107 17.3112 40.8107 17.3112 40.8107 17.3112C40.8107 17.3112 40.8107 17.3112 40.8107 17.3112C40.8107 17.3112 40.8107 17.3112 40.8107 17.3112C40.8107 17.3112 40.8107 17.3112 40.8107 17.3112C40.8107 17.3112 40.8107 17.3112 40.8107 17.3112C40.8107 17.3112 40.8107 17.3112 40.8107 17.3112C40.8107 17.3112 40.8107 17.3112 40.8107 17.3112C40.8107 17.3112 40.8107 17.3112 40.8107 17.3112C40.8107 17.3112 40.8107 17.3112 40.8107 17.3112C40.8107 17.3112 40.8107 17.3112 40.8107 17.3112C40.8107 17.3112 40.8107 17.3112 40.8107 17.3112C40.8107 17.3112 40.8107 17.3112 40.8107 17.3112C40.8107 17.3112 40.8107 17.3112 40.8107 17.3112V17.3112V17.3112V17.3112V17.3112V17.3112V17.3112V17.3112V17.3112V17.3112V17.3112V17.3112V17.3112V17.3112V17.3112V17.3112V17.3112V17.3112V17.3112V17.3112V17.3112V17.3112V17.3112C40.8107 17.3112 40.8107 17.3112 40.8107 17.3112C40.8107 17.3112 40.8107 17.3112 40.8107 17.3112C40.8107 17.3112 40.8107 17.3112 40.8107 17.3112C40.8107 17.3112 40.8107 17.3112 40.8107 17.3112C40.8107 17.3112 40.8107 17.3112 40.8107 17.3112C40.8107 17.3112 40.8107 17.3112 40.8107 17.3112C40.8107 17.3112 40.8107 17.3112 40.8107 17.3112C40.8107 17.3112 40.8107 17.3112 40.8107 17.3112C40.8107 17.3112 40.8107 17.3112 40.8107 17.3112C40.8107 17.3112 40.8107 17.3112 40.8107 17.3112C40.8107 17.3112 40.8107 17.3112 40.8107 17.3112C40.8107 17.3112 40.8107 17.3112 40.8107 17.3112C40.8107 17.3112 40.8107 17.3112 40.8107 17.3112C40.8107 17.3112 40.8107 17.3112 40.8107 17.3112C40.8107 17.3112 40.8107 17.3112 40.8107 17.3112C40.8107 17.3112 40.8107 17.3112 40.8107 17.3112C40.8107 17.3112 40.8107 17.3112 40.8107 17.3112C40.8107 17.3112 40.8107 17.3112 40.8107 17.3112C40.8107 17.3112 40.8107 17.3112 40.8107 17.3112C40.8107 17.3112 40.8107 17.3112 40.8107 17.3112C40.8107 17.3112 40.8107 17.3112 40.8107 17.3112C40.8107 17.3112 40.8107 17.3112 40.8107 17.3112C40.8107 17.3112 40.8107 17.3112 40.8107 17.3112C40.8107 17.3112 40.8107 17.3112 40.8107 17.3112C40.8107 17.3112 40.8107 17.3112 40.8107 17.3112C40.8107 17.3112 40.8107 17.3112 40.8107 17.3112C40.8107 17.3112 40.8107 17.3112 40.8107 17.3112C40.8107 17.3112 40.8107 17.3112 40.8107 17.3112C40.8107 17.3112 40.8107 17.3112 40.8107 17.3112C40.8107 17.3112 40.8107 17.3112 40.8107 17.3112C40.8107 17.3112 40.8107 17.3112 40.8107 17.3112C40.8107 17.3112 40.8107 17.3112 40.8107 17.3112C40.8107 17.3112 40.8107 17.3112 40.8107 17.3112C40.8107 17.3112 40.8107 17.3112 40.8107 17.3112C40.8107 17.3112 40.8107 17.3112 40.8107 17.3112C40.8107 17.3112 40.8107 17.3112 40.8107 17.3112C40.8107 17.3112 40.8107 17.3112 40.8107 17.3112C40.8107 17.3112 40.8107 17.3112 40.8107 17.3112C40.8107 17.3112 40.8107 17.3112 40.8107 17.3112C40.8107 17.3112 40.8107 17.3112 40.8107 17.3112C40.8107 17.3112 40.8107 17.3112 40.8107 17.3112C40.8107 17.3112 40.8107 17.3112 40.8107 17.3112C40.8107 17.3111 40.8107 17.3111 40.8107 17.3111C40.8107 17.3111 40.8107 17.3111 40.8107 17.3111C40.8107 17.3111 40.8107 17.3111 40.8107 17.3111C40.8107 17.3111 40.8107 17.3111 40.8107 17.3111C40.8107 17.3111 40.8107 17.3111 40.8107 17.3111C40.8107 17.3111 40.8107 17.3111 40.8107 17.3111C40.8107 17.3111 40.8107 17.3111 40.8107 17.3111C40.8107 17.3111 40.8107 17.3111 40.8107 17.3111V17.3111V17.3111V17.3111V17.3111V17.3111V17.3111V17.3111V17.3111V17.3111V17.3111V17.3111V17.3111V17.3111V17.3111V17.3111V17.3111V17.3111V17.3111V17.3111V17.3111V17.3111V17.3111C40.8107 17.3111 40.8107 17.3111 40.8107 17.3111C40.8107 17.3111 40.8107 17.3111 40.8107 17.3111C40.8107 17.3111 40.8107 17.3111 40.8107 17.3111C40.8107 17.3111 40.8107 17.3111 40.8107 17.3111C40.8107 17.3111 40.8107 17.3111 40.8107 17.3111C40.8107 17.3111 40.8107 17.3111 40.8107 17.3111C40.8107 17.3111 40.8107 17.3111 40.8107 17.3111C40.8107 17.3111 40.8107 17.3111 40.8107 17.3111C40.8107 17.3111 40.8107 17.3111 40.8107 17.3111C40.8107 17.3111 40.8107 17.3111 40.8107 17.3111C40.8107 17.3111 40.8107 17.3111 40.8107 17.3111C40.8107 17.3111 40.8107 17.3111 40.8107 17.3111C40.8107 17.3111 40.8107 17.3111 40.8107 17.3111C40.8107 17.3111 40.8107 17.3111 40.8107 17.3111C40.8107 17.3111 40.8107 17.3111 40.8107 17.3111C40.8107 17.3111 40.8107 17.3111 40.8107 17.3111C40.8107 17.3111 40.8107 17.3111 40.8107 17.3111H37.8107C37.8107 17.3111 37.8107 17.3111 37.8107 17.3111C37.8107 17.3111 37.8107 17.3111 37.8107 17.3111C37.8107 17.3111 37.8107 17.3111 37.8107 17.3111C37.8107 17.3111 37.8107 17.3111 37.8107 17.3111C37.8107 17.3111 37.8107 17.3111 37.8107 17.3111C37.8107 17.3111 37.8107 17.3111 37.8107 17.3111C37.8107 17.3111 37.8107 17.3111 37.8107 17.3111C37.8107 17.3111 37.8107 17.3111 37.8107 17.3111C37.8107 17.3111 37.8107 17.3111 37.8107 17.3111C37.8107 17.3111 37.8107 17.3111 37.8107 17.3111C37.8107 17.3111 37.8107 17.3111 37.8107 17.3111C37.8107 17.3111 37.8107 17.3111 37.8107 17.3111C37.8107 17.3111 37.8107 17.3111 37.8107 17.3111C37.8107 17.3111 37.8107 17.3111 37.8107 17.3111C37.8107 17.3111 37.8107 17.3111 37.8107 17.3111C37.8107 17.3111 37.8107 17.3111 37.8107 17.3111C37.8107 17.3111 37.8107 17.3111 37.8107 17.3111V17.3111V17.3111V17.3111V17.3111V17.3111V17.3111V17.3111V17.3111V17.3111V17.3111V17.3111V17.3111V17.3111V17.3111V17.3111V17.3111V17.3111V17.3111V17.3111V17.3111V17.3111V17.3111C37.8107 17.3111 37.8107 17.3111 37.8107 17.3111C37.8107 17.3111 37.8107 17.3111 37.8107 17.3111C37.8107 17.3111 37.8107 17.3111 37.8107 17.3111C37.8107 17.3111 37.8107 17.3111 37.8107 17.3111C37.8107 17.3111 37.8107 17.3111 37.8107 17.3111C37.8107 17.3111 37.8107 17.3111 37.8107 17.3111C37.8107 17.3111 37.8107 17.3111 37.8107 17.3111C37.8107 17.3111 37.8107 17.3111 37.8107 17.3112C37.8107 17.3112 37.8107 17.3112 37.8107 17.3112C37.8107 17.3112 37.8107 17.3112 37.8107 17.3112C37.8107 17.3112 37.8107 17.3112 37.8107 17.3112C37.8107 17.3112 37.8107 17.3112 37.8107 17.3112C37.8107 17.3112 37.8107 17.3112 37.8107 17.3112C37.8107 17.3112 37.8107 17.3112 37.8107 17.3112C37.8107 17.3112 37.8107 17.3112 37.8107 17.3112C37.8107 17.3112 37.8107 17.3112 37.8107 17.3112C37.8107 17.3112 37.8107 17.3112 37.8107 17.3112C37.8107 17.3112 37.8107 17.3112 37.8107 17.3112C37.8107 17.3112 37.8107 17.3112 37.8107 17.3112C37.8107 17.3112 37.8107 17.3112 37.8107 17.3112C37.8107 17.3112 37.8107 17.3112 37.8107 17.3112C37.8107 17.3112 37.8107 17.3112 37.8107 17.3112C37.8107 17.3112 37.8107 17.3112 37.8107 17.3112C37.8107 17.3112 37.8107 17.3112 37.8107 17.3112C37.8107 17.3112 37.8107 17.3112 37.8107 17.3112C37.8107 17.3112 37.8107 17.3112 37.8107 17.3112C37.8107 17.3112 37.8107 17.3112 37.8107 17.3112C37.8107 17.3112 37.8107 17.3112 37.8107 17.3112C37.8107 17.3112 37.8107 17.3112 37.8107 17.3112C37.8107 17.3112 37.8107 17.3112 37.8107 17.3112C37.8107 17.3112 37.8107 17.3112 37.8107 17.3112C37.8107 17.3112 37.8107 17.3112 37.8107 17.3112C37.8107 17.3112 37.8107 17.3112 37.8107 17.3112C37.8107 17.3112 37.8107 17.3112 37.8107 17.3112C37.8107 17.3112 37.8107 17.3112 37.8107 17.3112C37.8107 17.3112 37.8107 17.3112 37.8107 17.3112C37.8107 17.3112 37.8107 17.3112 37.8107 17.3112C37.8107 17.3112 37.8107 17.3112 37.8107 17.3112C37.8107 17.3112 37.8107 17.3112 37.8107 17.3112C37.8107 17.3112 37.8107 17.3112 37.8107 17.3112C37.8107 17.3112 37.8107 17.3112 37.8107 17.3112C37.8107 17.3112 37.8107 17.3112 37.8107 17.3112C37.8107 17.3112 37.8107 17.3112 37.8107 17.3112C37.8107 17.3112 37.8107 17.3112 37.8107 17.3112C37.8107 17.3112 37.8107 17.3112 37.8107 17.3112C37.8107 17.3112 37.8107 17.3112 37.8107 17.3112C37.8107 17.3112 37.8107 17.3112 37.8107 17.3112C37.8107 17.3112 37.8107 17.3112 37.8107 17.3112C37.8107 17.3112 37.8107 17.3112 37.8107 17.3112C37.8107 17.3112 37.8107 17.3112 37.8107 17.3112V17.3112V17.3112V17.3112V17.3112V17.3112V17.3112V17.3112V17.3112V17.3112V17.3112V17.3112V17.3112V17.3112V17.3112V17.3112V17.3112V17.3112V17.3112V17.3112V17.3112V17.3112V17.3112C37.8107 17.3112 37.8107 17.3112 37.8107 17.3112C37.8107 17.3112 37.8107 17.3112 37.8107 17.3112C37.8107 17.3112 37.8107 17.3112 37.8107 17.3112C37.8107 17.3112 37.8107 17.3112 37.8107 17.3112C37.8107 17.3112 37.8107 17.3112 37.8107 17.3112C37.8107 17.3112 37.8107 17.3112 37.8107 17.3112C37.8107 17.3112 37.8107 17.3112 37.8107 17.3112C37.8107 17.3112 37.8107 17.3112 37.8107 17.3112C37.8107 17.3112 37.8107 17.3112 37.8107 17.3112C37.8107 17.3112 37.8107 17.3112 37.8107 17.3112C37.8107 17.3112 37.8107 17.3112 37.8107 17.3112C37.8107 17.3112 37.8107 17.3112 37.8107 17.3112C37.8107 17.3112 37.8107 17.3112 37.8107 17.3112C37.8107 17.3112 37.8107 17.3112 37.8107 17.3112C37.8107 17.3112 37.8107 17.3112 37.8107 17.3112C37.8107 17.3112 37.8107 17.3112 37.8107 17.3112C37.8107 17.3112 37.8107 17.3112 37.8107 17.3112H40.8107ZM39.3107 15.8112C39.3087 15.8112 39.3071 15.8112 39.3068 15.8112C39.3062 15.8112 39.3071 15.8112 39.3081 15.8112V18.8112C39.31 18.8112 39.3117 18.8112 39.3119 18.8112C39.3126 18.8112 39.3117 18.8112 39.3107 18.8112V15.8112ZM39.3081 15.8112C39.3092 15.8112 39.31 15.8112 39.3094 15.8112C39.3092 15.8112 39.3075 15.8112 39.3056 15.8112V18.8112C39.3045 18.8112 39.3037 18.8112 39.3043 18.8112C39.3045 18.8112 39.3062 18.8112 39.3081 18.8112V15.8112ZM40.8056 17.3112C40.8056 17.3112 40.8056 17.3112 40.8056 17.3112C40.8056 17.3112 40.8056 17.3112 40.8056 17.3112C40.8056 17.3112 40.8056 17.3112 40.8056 17.3112C40.8056 17.3112 40.8056 17.3112 40.8056 17.3112C40.8056 17.3112 40.8056 17.3112 40.8056 17.3112C40.8056 17.3112 40.8056 17.3112 40.8056 17.3112C40.8056 17.3112 40.8056 17.3112 40.8056 17.3112C40.8056 17.3112 40.8056 17.3112 40.8056 17.3112C40.8056 17.3112 40.8056 17.3112 40.8056 17.3112C40.8056 17.3112 40.8056 17.3112 40.8056 17.3112C40.8056 17.3112 40.8056 17.3112 40.8056 17.3112C40.8056 17.3112 40.8056 17.3112 40.8056 17.3112C40.8056 17.3112 40.8056 17.3112 40.8056 17.3112C40.8056 17.3112 40.8056 17.3112 40.8056 17.3112C40.8056 17.3112 40.8056 17.3112 40.8056 17.3112C40.8056 17.3112 40.8056 17.3112 40.8056 17.3112C40.8056 17.3112 40.8056 17.3112 40.8056 17.3112V17.3112V17.3112V17.3112V17.3112V17.3112V17.3112V17.3112V17.3112V17.3112V17.3112V17.3112V17.3112V17.3112V17.3112V17.3112V17.3112V17.3112V17.3112V17.3112V17.3112V17.3112V17.3112C40.8056 17.3112 40.8056 17.3112 40.8056 17.3112C40.8056 17.3112 40.8056 17.3112 40.8056 17.3112C40.8056 17.3112 40.8056 17.3112 40.8056 17.3112C40.8056 17.3112 40.8056 17.3112 40.8056 17.3112C40.8056 17.3112 40.8056 17.3112 40.8056 17.3112C40.8056 17.3112 40.8056 17.3112 40.8056 17.3112C40.8056 17.3112 40.8056 17.3112 40.8056 17.3112C40.8056 17.3112 40.8056 17.3112 40.8056 17.3112C40.8056 17.3112 40.8056 17.3112 40.8056 17.3112C40.8056 17.3112 40.8056 17.3112 40.8056 17.3112C40.8056 17.3112 40.8056 17.3112 40.8056 17.3112C40.8056 17.3112 40.8056 17.3112 40.8056 17.3112C40.8056 17.3112 40.8056 17.3112 40.8056 17.3112C40.8056 17.3112 40.8056 17.3112 40.8056 17.3112C40.8056 17.3112 40.8056 17.3112 40.8056 17.3112C40.8056 17.3112 40.8056 17.3112 40.8056 17.3112C40.8056 17.3112 40.8056 17.3112 40.8056 17.3112C40.8056 17.3112 40.8056 17.3112 40.8056 17.3112C40.8056 17.3112 40.8056 17.3112 40.8056 17.3112C40.8056 17.3112 40.8056 17.3112 40.8056 17.3112C40.8056 17.3112 40.8056 17.3112 40.8056 17.3112C40.8056 17.3112 40.8056 17.3112 40.8056 17.3112C40.8056 17.3112 40.8056 17.3112 40.8056 17.3112C40.8056 17.3112 40.8056 17.3112 40.8056 17.3112C40.8056 17.3112 40.8056 17.3112 40.8056 17.3112C40.8056 17.3112 40.8056 17.3112 40.8056 17.3112C40.8056 17.3112 40.8056 17.3112 40.8056 17.3112C40.8056 17.3112 40.8056 17.3112 40.8056 17.3112C40.8056 17.3112 40.8056 17.3112 40.8056 17.3112C40.8056 17.3112 40.8056 17.3112 40.8056 17.3112C40.8056 17.3112 40.8056 17.3112 40.8056 17.3112C40.8056 17.3112 40.8056 17.3112 40.8056 17.3112C40.8056 17.3112 40.8056 17.3112 40.8056 17.3112C40.8056 17.3112 40.8056 17.3112 40.8056 17.3112C40.8056 17.3112 40.8056 17.3112 40.8056 17.3112C40.8056 17.3112 40.8056 17.3112 40.8056 17.3112C40.8056 17.3112 40.8056 17.3112 40.8056 17.3112C40.8056 17.3112 40.8056 17.3112 40.8056 17.3112C40.8056 17.3112 40.8056 17.3112 40.8056 17.3112C40.8056 17.3112 40.8056 17.3112 40.8056 17.3112C40.8056 17.3112 40.8056 17.3112 40.8056 17.3112C40.8056 17.3112 40.8056 17.3112 40.8056 17.3112C40.8056 17.3111 40.8056 17.3111 40.8056 17.3111C40.8056 17.3111 40.8056 17.3111 40.8056 17.3111C40.8056 17.3111 40.8056 17.3111 40.8056 17.3111C40.8056 17.3111 40.8056 17.3111 40.8056 17.3111C40.8056 17.3111 40.8056 17.3111 40.8056 17.3111C40.8056 17.3111 40.8056 17.3111 40.8056 17.3111C40.8056 17.3111 40.8056 17.3111 40.8056 17.3111C40.8056 17.3111 40.8056 17.3111 40.8056 17.3111V17.3111V17.3111V17.3111V17.3111V17.3111V17.3111V17.3111V17.3111V17.3111V17.3111V17.3111V17.3111V17.3111V17.3111V17.3111V17.3111V17.3111V17.3111V17.3111V17.3111V17.3111V17.3111C40.8056 17.3111 40.8056 17.3111 40.8056 17.3111C40.8056 17.3111 40.8056 17.3111 40.8056 17.3111C40.8056 17.3111 40.8056 17.3111 40.8056 17.3111C40.8056 17.3111 40.8056 17.3111 40.8056 17.3111C40.8056 17.3111 40.8056 17.3111 40.8056 17.3111C40.8056 17.3111 40.8056 17.3111 40.8056 17.3111C40.8056 17.3111 40.8056 17.3111 40.8056 17.3111C40.8056 17.3111 40.8056 17.3111 40.8056 17.3111C40.8056 17.3111 40.8056 17.3111 40.8056 17.3111C40.8056 17.3111 40.8056 17.3111 40.8056 17.3111C40.8056 17.3111 40.8056 17.3111 40.8056 17.3111C40.8056 17.3111 40.8056 17.3111 40.8056 17.3111C40.8056 17.3111 40.8056 17.3111 40.8056 17.3111C40.8056 17.3111 40.8056 17.3111 40.8056 17.3111C40.8056 17.3111 40.8056 17.3111 40.8056 17.3111C40.8056 17.3111 40.8056 17.3111 40.8056 17.3111C40.8056 17.3111 40.8056 17.3111 40.8056 17.3111H37.8056C37.8056 17.3111 37.8056 17.3111 37.8056 17.3111C37.8056 17.3111 37.8056 17.3111 37.8056 17.3111C37.8056 17.3111 37.8056 17.3111 37.8056 17.3111C37.8056 17.3111 37.8056 17.3111 37.8056 17.3111C37.8056 17.3111 37.8056 17.3111 37.8056 17.3111C37.8056 17.3111 37.8056 17.3111 37.8056 17.3111C37.8056 17.3111 37.8056 17.3111 37.8056 17.3111C37.8056 17.3111 37.8056 17.3111 37.8056 17.3111C37.8056 17.3111 37.8056 17.3111 37.8056 17.3111C37.8056 17.3111 37.8056 17.3111 37.8056 17.3111C37.8056 17.3111 37.8056 17.3111 37.8056 17.3111C37.8056 17.3111 37.8056 17.3111 37.8056 17.3111C37.8056 17.3111 37.8056 17.3111 37.8056 17.3111C37.8056 17.3111 37.8056 17.3111 37.8056 17.3111C37.8056 17.3111 37.8056 17.3111 37.8056 17.3111C37.8056 17.3111 37.8056 17.3111 37.8056 17.3111C37.8056 17.3111 37.8056 17.3111 37.8056 17.3111V17.3111V17.3111V17.3111V17.3111V17.3111V17.3111V17.3111V17.3111V17.3111V17.3111V17.3111V17.3111V17.3111V17.3111V17.3111V17.3111V17.3111V17.3111V17.3111V17.3111V17.3111V17.3111C37.8056 17.3111 37.8056 17.3111 37.8056 17.3111C37.8056 17.3111 37.8056 17.3111 37.8056 17.3111C37.8056 17.3111 37.8056 17.3111 37.8056 17.3111C37.8056 17.3111 37.8056 17.3111 37.8056 17.3111C37.8056 17.3111 37.8056 17.3111 37.8056 17.3111C37.8056 17.3111 37.8056 17.3111 37.8056 17.3111C37.8056 17.3111 37.8056 17.3111 37.8056 17.3111C37.8056 17.3111 37.8056 17.3111 37.8056 17.3112C37.8056 17.3112 37.8056 17.3112 37.8056 17.3112C37.8056 17.3112 37.8056 17.3112 37.8056 17.3112C37.8056 17.3112 37.8056 17.3112 37.8056 17.3112C37.8056 17.3112 37.8056 17.3112 37.8056 17.3112C37.8056 17.3112 37.8056 17.3112 37.8056 17.3112C37.8056 17.3112 37.8056 17.3112 37.8056 17.3112C37.8056 17.3112 37.8056 17.3112 37.8056 17.3112C37.8056 17.3112 37.8056 17.3112 37.8056 17.3112C37.8056 17.3112 37.8056 17.3112 37.8056 17.3112C37.8056 17.3112 37.8056 17.3112 37.8056 17.3112C37.8056 17.3112 37.8056 17.3112 37.8056 17.3112C37.8056 17.3112 37.8056 17.3112 37.8056 17.3112C37.8056 17.3112 37.8056 17.3112 37.8056 17.3112C37.8056 17.3112 37.8056 17.3112 37.8056 17.3112C37.8056 17.3112 37.8056 17.3112 37.8056 17.3112C37.8056 17.3112 37.8056 17.3112 37.8056 17.3112C37.8056 17.3112 37.8056 17.3112 37.8056 17.3112C37.8056 17.3112 37.8056 17.3112 37.8056 17.3112C37.8056 17.3112 37.8056 17.3112 37.8056 17.3112C37.8056 17.3112 37.8056 17.3112 37.8056 17.3112C37.8056 17.3112 37.8056 17.3112 37.8056 17.3112C37.8056 17.3112 37.8056 17.3112 37.8056 17.3112C37.8056 17.3112 37.8056 17.3112 37.8056 17.3112C37.8056 17.3112 37.8056 17.3112 37.8056 17.3112C37.8056 17.3112 37.8056 17.3112 37.8056 17.3112C37.8056 17.3112 37.8056 17.3112 37.8056 17.3112C37.8056 17.3112 37.8056 17.3112 37.8056 17.3112C37.8056 17.3112 37.8056 17.3112 37.8056 17.3112C37.8056 17.3112 37.8056 17.3112 37.8056 17.3112C37.8056 17.3112 37.8056 17.3112 37.8056 17.3112C37.8056 17.3112 37.8056 17.3112 37.8056 17.3112C37.8056 17.3112 37.8056 17.3112 37.8056 17.3112C37.8056 17.3112 37.8056 17.3112 37.8056 17.3112C37.8056 17.3112 37.8056 17.3112 37.8056 17.3112C37.8056 17.3112 37.8056 17.3112 37.8056 17.3112C37.8056 17.3112 37.8056 17.3112 37.8056 17.3112C37.8056 17.3112 37.8056 17.3112 37.8056 17.3112C37.8056 17.3112 37.8056 17.3112 37.8056 17.3112C37.8056 17.3112 37.8056 17.3112 37.8056 17.3112C37.8056 17.3112 37.8056 17.3112 37.8056 17.3112C37.8056 17.3112 37.8056 17.3112 37.8056 17.3112C37.8056 17.3112 37.8056 17.3112 37.8056 17.3112V17.3112V17.3112V17.3112V17.3112V17.3112V17.3112V17.3112V17.3112V17.3112V17.3112V17.3112V17.3112V17.3112V17.3112V17.3112V17.3112V17.3112V17.3112V17.3112V17.3112V17.3112V17.3112C37.8056 17.3112 37.8056 17.3112 37.8056 17.3112C37.8056 17.3112 37.8056 17.3112 37.8056 17.3112C37.8056 17.3112 37.8056 17.3112 37.8056 17.3112C37.8056 17.3112 37.8056 17.3112 37.8056 17.3112C37.8056 17.3112 37.8056 17.3112 37.8056 17.3112C37.8056 17.3112 37.8056 17.3112 37.8056 17.3112C37.8056 17.3112 37.8056 17.3112 37.8056 17.3112C37.8056 17.3112 37.8056 17.3112 37.8056 17.3112C37.8056 17.3112 37.8056 17.3112 37.8056 17.3112C37.8056 17.3112 37.8056 17.3112 37.8056 17.3112C37.8056 17.3112 37.8056 17.3112 37.8056 17.3112C37.8056 17.3112 37.8056 17.3112 37.8056 17.3112C37.8056 17.3112 37.8056 17.3112 37.8056 17.3112C37.8056 17.3112 37.8056 17.3112 37.8056 17.3112C37.8056 17.3112 37.8056 17.3112 37.8056 17.3112C37.8056 17.3112 37.8056 17.3112 37.8056 17.3112C37.8056 17.3112 37.8056 17.3112 37.8056 17.3112H40.8056ZM40.8056 17.3111C40.8056 13.316 38.2231 9.41359 34.3125 9.41111L34.3106 12.4111C35.9168 12.4121 37.8056 14.2391 37.8056 17.3111H40.8056ZM35.8115 10.9111V10.9111H32.8115V10.9111H35.8115Z" fill="#131518" mask="url(#path-1-outside-1_836_10936)"/>
<path d="M10.666 20.9912C10.666 19.3344 12.0092 17.9912 13.666 17.9912H27.3149C28.9717 17.9912 30.3149 19.3344 30.3149 20.9912V42.5311H10.666V20.9912Z" fill="#F6F7F9" stroke="#131518" stroke-width="1.5" stroke-linejoin="round"/>
<path fill-rule="evenodd" clip-rule="evenodd" d="M17.5439 6.21393C17.5439 4.58617 18.8635 3.2666 20.4913 3.2666C22.119 3.2666 23.4386 4.58617 23.4386 6.21393V10.9967H17.5439L17.5439 6.21393Z" fill="#F6F7F9" stroke="#131518" stroke-width="1.5" stroke-linejoin="round"/>
<path fill-rule="evenodd" clip-rule="evenodd" d="M15.5791 10.9971H25.4035V17.7609H15.5791L15.5791 10.9971Z" fill="#F6F7F9" stroke="#131518" stroke-width="1.5" stroke-linejoin="round"/>
<path fill-rule="evenodd" clip-rule="evenodd" d="M38.1484 29.1446C38.1484 29.1446 38.8413 23.3033 43.6911 24.0333C43.6911 24.0333 47.0149 24.6175 49.2038 21.6106C49.6393 21.0136 50.4946 21.0519 50.8794 21.6873C51.7867 23.1844 52.8955 25.864 52.0064 29.1446H38.1484Z" fill="#F6F7F9" stroke="#131518" stroke-width="1.5"/>
<path fill-rule="evenodd" clip-rule="evenodd" d="M38.1484 29.1446C38.1484 29.1446 38.8413 23.3033 43.6911 24.0333C43.6911 24.0333 47.0149 24.6175 49.2038 21.6106C49.6393 21.0136 50.4946 21.0519 50.8794 21.6873C51.7867 23.1844 52.8955 25.864 52.0064 29.1446H38.1484Z" fill="#F6F7F9" stroke="#131518" stroke-width="1.5" stroke-linecap="round" stroke-linejoin="round"/>
<path fill-rule="evenodd" clip-rule="evenodd" d="M51.7421 42.5201H38.7434C36.5895 42.5201 34.8438 40.8032 34.8438 38.6848V33.9545C34.8438 33.0365 35.6003 32.2925 36.5336 32.2925H53.9519C54.8852 32.2925 55.6417 33.0365 55.6417 33.9545V38.6848C55.6417 40.8032 53.896 42.5201 51.7421 42.5201Z" fill="#F6F7F9" stroke="#131518" stroke-width="1.5" stroke-linecap="round" stroke-linejoin="round"/>
<path fill-rule="evenodd" clip-rule="evenodd" d="M54.2 32.2915H36.2812V30.0197C36.2812 29.1017 37.0378 28.3577 37.9711 28.3577H52.5101C53.4435 28.3577 54.2 29.1017 54.2 30.0197V32.2915Z" fill="#F6F7F9" stroke="#131518" stroke-width="1.5"/>
<path fill-rule="evenodd" clip-rule="evenodd" d="M54.2 32.2915H36.2812V30.0197C36.2812 29.1017 37.0378 28.3577 37.9711 28.3577H52.5101C53.4435 28.3577 54.2 29.1017 54.2 30.0197V32.2915Z" fill="#F6F7F9" stroke="#131518" stroke-width="1.5" stroke-linecap="round" stroke-linejoin="round"/>
</svg>
